<svg xmlns="http://www.w3.org/2000/svg" xmlns:xlink="http://www.w3.org/1999/xlink" width="1080" zoomAndPan="magnify" viewBox="0 0 810 1439.999935" height="1920" preserveAspectRatio="xMidYMid meet" version="1.0"><defs><clipPath id="c7245ec106"><path d="M 191 325.023438 L 619 325.023438 L 619 887 L 191 887 Z M 191 325.023438 " clip-rule="nonzero"/></clipPath></defs><path fill="#00c6ca" d="M 402.152344 860.449219 L 401.792969 861.726562 C 351.8125 882.945312 298.453125 891.234375 245.511719 875.355469 L 244.585938 875.332031 C 227.449219 779.488281 213.753906 696.675781 200.648438 600.195312 L 354.976562 561.355469 C 368.082031 657.835938 385.015625 764.601562 402.152344 860.449219 Z M 278.046875 532.976562 L 290.480469 531.058594 C 289.253906 520.492188 288.023438 509.925781 286.792969 499.363281 C 286.671875 498.304688 286.523438 497.183594 285.855469 496.351562 C 285.207031 495.535156 284.171875 495.144531 283.179688 494.820312 C 268.050781 489.882812 250.421875 493.554688 238.523438 504.128906 C 240.875 515.421875 243.3125 526.695312 245.839844 537.953125 L 249.449219 537.394531 C 229.003906 544.628906 211.476562 560.261719 203.441406 580.382812 L 337.449219 557.851562 C 321.457031 542.820312 299.886719 533.609375 278.046875 532.976562 Z M 278.046875 532.976562 " fill-opacity="1" fill-rule="nonzero"/><path fill="#dbff6c" d="M 608.078125 472.835938 C 603.84375 477.011719 597.953125 480.175781 596.3125 485.890625 C 595.582031 488.429688 595.828125 491.140625 596.171875 493.761719 C 597.105469 500.894531 598.699219 508.082031 597.761719 515.214844 C 596.828125 522.347656 592.644531 529.644531 585.75 531.703125 C 582.5625 532.65625 579.128906 532.410156 575.894531 533.179688 C 561.964844 536.488281 558.269531 555.597656 545.835938 562.691406 C 540.785156 565.574219 534.472656 566.140625 528.984375 564.210938 C 518.71875 560.589844 511.292969 548.890625 500.429688 549.59375 C 496.792969 549.828125 493.4375 551.5 490.105469 552.972656 C 483.863281 555.730469 477.152344 557.910156 470.34375 557.464844 C 463.535156 557.015625 456.605469 553.484375 453.652344 547.332031 C 452.175781 544.253906 451.773438 540.769531 450.585938 537.566406 C 447.78125 530.003906 440.28125 524.425781 432.234375 523.914062 C 425.980469 523.519531 420.511719 524.496094 417.726562 517.847656 C 415.398438 512.285156 414.070312 506.277344 412.074219 500.648438 C 395.570312 501.21875 378.25 505.695312 361.925781 508.40625 C 337.242188 512.503906 315.433594 518.023438 290.667969 521.65625 L 290.148438 504.617188 C 319.832031 486.367188 352.5625 467.5625 385.679688 447.292969 C 387.730469 446.039062 389.9375 444.597656 390.660156 442.304688 C 391.390625 439.984375 390.386719 437.523438 389.925781 435.132812 C 388.265625 426.472656 395.253906 417.164062 404.035156 416.34375 C 406.203125 416.140625 408.503906 416.363281 410.441406 415.371094 C 418.625 411.1875 411.292969 395.058594 413.808594 387.882812 C 417.984375 375.964844 431.941406 375.664062 439.402344 367.339844 C 443.566406 362.695312 444.460938 356.089844 446.566406 350.21875 C 449.359375 342.433594 454.742188 335.410156 462.085938 331.609375 C 469.425781 327.804688 478.761719 327.585938 485.804688 331.914062 C 488.8125 333.761719 491.347656 336.355469 494.507812 337.925781 C 504.949219 343.105469 516.953125 335.609375 528.53125 334.28125 C 543.664062 332.550781 559.246094 343.234375 563.085938 357.976562 C 563.871094 361.003906 564.253906 364.238281 565.976562 366.847656 C 569.339844 371.945312 576.285156 372.777344 582.070312 374.730469 C 592.347656 378.207031 600.722656 386.867188 603.851562 397.257812 C 606.882812 407.324219 599.160156 414.886719 601.84375 424.574219 C 603.382812 430.125 608.230469 434.023438 611.457031 438.796875 C 618.382812 449.042969 616.886719 464.148438 608.078125 472.835938 Z M 330.421875 578.332031 C 337.105469 577.113281 359.742188 576.945312 357.738281 565.625 C 357.273438 563.007812 355.507812 560.65625 353.125 559.480469 C 348.15625 557.035156 338.703125 560.035156 333.464844 560.71875 C 325.523438 561.753906 317.589844 562.84375 309.664062 563.984375 C 293.8125 566.273438 277.996094 568.78125 262.214844 571.503906 C 247.5 574.042969 232.816406 576.769531 218.171875 579.6875 C 212.628906 580.789062 202.277344 580.875 197.609375 584.011719 C 193.964844 586.457031 193.597656 592.804688 196.992188 595.660156 C 199.6875 597.933594 203.640625 597.632812 207.140625 597.199219 C 234.648438 593.785156 262.089844 589.851562 289.449219 585.398438 C 303.128906 583.171875 316.789062 580.816406 330.421875 578.332031 Z M 336.175781 599.929688 C 327.554688 598.757812 317.632812 602.363281 314.300781 610.398438 C 308.738281 623.816406 323.867188 639.632812 317.699219 652.785156 C 315 658.546875 308.757812 661.917969 302.523438 663.203125 C 296.289062 664.488281 289.847656 664.074219 283.496094 664.433594 C 271.726562 665.09375 258.339844 670.136719 255.132812 681.480469 C 252.398438 691.164062 258.355469 701.152344 265.246094 708.488281 C 277.335938 721.34375 292.972656 735.917969 296.628906 753.917969 C 297.183594 756.65625 297.488281 759.480469 297.117188 762.25 C 296.195312 769.121094 291.367188 774.707031 287.074219 780.148438 C 277.738281 791.984375 276.445312 813.097656 296.09375 816.054688 C 314.363281 818.804688 318.117188 793.847656 330.785156 786.746094 C 335.90625 783.878906 343.59375 784.660156 346.179688 789.929688 C 347.503906 792.621094 347.226562 795.78125 347.097656 798.777344 C 346.566406 810.945312 350.542969 825.214844 361.9375 829.511719 C 372.09375 833.339844 383.253906 827.425781 391.710938 820.617188 L 359.730469 610.640625 C 352.417969 605.929688 344.796875 601.097656 336.175781 599.929688 Z M 281.039062 830.40625 C 276.304688 830.878906 272.355469 834.1875 269.167969 837.722656 C 265.351562 841.953125 261.980469 847.5 263.265625 853.050781 C 264.578125 858.714844 271.292969 862.445312 276.796875 860.570312 C 280.851562 859.1875 283.726562 855.347656 284.847656 851.214844 C 285.964844 847.078125 285.558594 842.675781 284.683594 838.484375 Z M 281.039062 830.40625 " fill-opacity="1" fill-rule="nonzero"/><path fill="#ffffff" d="M 336.851562 619.875 C 334.277344 623.847656 334.558594 628.992188 335.367188 633.660156 C 336.175781 638.324219 337.421875 643.082031 336.476562 647.722656 C 336.332031 648.425781 336.117188 649.15625 335.601562 649.664062 C 334.453125 650.789062 332.363281 650.148438 331.457031 648.816406 C 330.183594 646.945312 329.84375 643.304688 329.226562 641.074219 C 328.359375 637.953125 327.648438 634.777344 327.066406 631.589844 C 326.152344 626.632812 326.320312 619.597656 328.769531 615.09375 C 330.261719 612.351562 331.902344 611.328125 335.003906 611.441406 C 341.15625 611.664062 339.335938 616.035156 336.851562 619.875 Z M 558.765625 382.675781 C 557.21875 373.003906 553.207031 363.738281 547.207031 355.996094 C 544.324219 352.277344 540.746094 348.757812 536.183594 347.609375 C 526.734375 345.230469 519.054688 354.78125 526.746094 362.046875 C 530.59375 365.679688 535.34375 368.210938 539.375 371.636719 C 544.75 376.207031 546.742188 382.203125 551 387.402344 C 555.425781 392.800781 559.855469 389.492188 558.765625 382.675781 Z M 563.890625 399.46875 C 562.976562 399.078125 561.964844 398.886719 560.980469 399 C 555.753906 399.605469 554.4375 407.46875 557.558594 410.984375 C 560.46875 414.265625 565.953125 412.171875 567.515625 408.503906 C 568.925781 405.1875 567.199219 400.886719 563.890625 399.46875 Z M 276.445312 510.796875 C 275.882812 511.722656 275.449219 512.738281 275.390625 513.796875 C 275.339844 514.652344 275.539062 515.511719 275.839844 516.324219 C 276.671875 518.59375 278.324219 520.625 280.550781 521.851562 C 282.78125 523.078125 285.582031 523.453125 288.042969 522.699219 L 284.941406 504.964844 C 281.394531 505.699219 278.226562 507.875 276.445312 510.796875 Z M 276.445312 510.796875 " fill-opacity="1" fill-rule="nonzero"/><g clip-path="url(#c7245ec106)"><path fill="#3a3a3a" d="M 613.867188 437.386719 C 610.152344 431.863281 604 427.351562 604.0625 420.109375 C 604.117188 413.640625 607.699219 407.746094 607.328125 401.183594 C 606.953125 394.46875 603.316406 387.96875 599.011719 382.964844 C 594.640625 377.875 588.863281 374.042969 582.5 371.9375 C 576.6875 370.011719 569.195312 369.339844 567.085938 362.578125 C 566.035156 359.203125 565.527344 355.785156 564.105469 352.515625 C 562.824219 349.566406 561.097656 346.890625 559.058594 344.410156 C 554.980469 339.445312 549.484375 335.699219 543.488281 333.449219 C 537.191406 331.085938 530.546875 330.847656 524.003906 332.21875 C 516.914062 333.699219 509.9375 336.953125 502.601562 336.933594 C 498.871094 336.921875 495.722656 335.683594 492.71875 333.519531 C 489.722656 331.363281 487.015625 329.09375 483.546875 327.703125 C 476.777344 324.996094 468.996094 325.507812 462.378906 328.398438 C 456.160156 331.113281 451.074219 336.039062 447.539062 341.773438 C 445.710938 344.730469 444.332031 347.949219 443.277344 351.257812 C 442.171875 354.714844 441.402344 358.34375 439.820312 361.628906 C 437.15625 367.148438 431.996094 369.792969 426.761719 372.425781 C 421.808594 374.917969 416.871094 377.589844 413.59375 382.21875 C 410.347656 386.808594 410.222656 391.703125 410.824219 397.082031 C 411.117188 399.710938 411.5 402.332031 411.617188 404.976562 C 411.707031 407.058594 411.8125 409.558594 410.707031 411.417969 C 409.210938 413.933594 405.894531 413.324219 403.394531 413.628906 C 400.226562 414.011719 397.28125 415.265625 394.75 417.199219 C 389.8125 420.972656 386.46875 427.234375 386.929688 433.542969 C 387.175781 436.90625 389.5625 440.863281 386.445312 443.429688 C 383.4375 445.902344 379.652344 447.703125 376.332031 449.71875 C 368.730469 454.332031 361.105469 458.902344 353.46875 463.453125 C 338.691406 472.261719 323.871094 481 309.117188 489.847656 C 302.679688 493.710938 296.261719 497.597656 289.867188 501.523438 C 289.585938 498.359375 289.285156 494.90625 286.328125 493.144531 C 283.511719 491.460938 279.734375 490.882812 276.546875 490.417969 C 262.199219 488.332031 247.476562 492.609375 236.550781 502.152344 C 235.78125 502.824219 235.636719 503.929688 235.832031 504.871094 C 238.074219 515.632812 240.402344 526.378906 242.796875 537.105469 C 234.808594 540.605469 227.347656 545.34375 220.769531 551.214844 C 212.003906 559.042969 205.164062 568.75 200.753906 579.632812 C 199.820312 579.921875 198.898438 580.238281 198.007812 580.636719 C 193.214844 582.785156 190.789062 588.121094 192.277344 593.195312 C 193.242188 596.480469 195.402344 598.34375 198.058594 599.3125 C 197.910156 599.820312 197.882812 600.382812 197.957031 600.9375 C 202.863281 637.042969 208.113281 673.101562 213.71875 709.105469 C 219.1875 744.222656 224.992188 779.28125 231.03125 814.300781 C 234.585938 834.90625 238.214844 855.496094 241.894531 876.074219 C 242.109375 877.285156 243.441406 878.097656 244.585938 878.125 C 245.949219 878.15625 247.332031 878.800781 248.652344 879.167969 C 250.660156 879.722656 252.675781 880.25 254.699219 880.742188 C 258.417969 881.648438 262.164062 882.445312 265.929688 883.128906 C 273.453125 884.5 281.058594 885.445312 288.6875 885.960938 C 303.972656 886.996094 319.3125 886.21875 334.460938 884.027344 C 349.625 881.832031 364.550781 878.140625 379.082031 873.304688 C 386.457031 870.851562 393.734375 868.105469 400.902344 865.105469 C 402.453125 864.457031 403.863281 864.078125 404.503906 862.402344 C 404.898438 861.363281 404.949219 860.382812 404.769531 859.289062 C 404.175781 855.664062 403.480469 852.054688 402.839844 848.4375 C 397.445312 817.96875 392.25 787.460938 387.238281 756.925781 C 382.125 725.777344 377.199219 694.597656 372.46875 663.386719 C 367.851562 632.917969 363.417969 602.421875 359.214844 571.894531 C 359.703125 571.132812 360.097656 570.3125 360.339844 569.40625 C 361.523438 565.046875 359.3125 560.234375 355.671875 557.753906 C 351.308594 554.78125 345.476562 555.707031 340.609375 556.566406 C 340.410156 556.601562 340.214844 556.632812 340.015625 556.667969 C 339.875 556.394531 339.691406 556.125 339.421875 555.875 C 326.554688 543.882812 310.425781 535.460938 293.226562 531.960938 C 293.285156 531.6875 293.3125 531.394531 293.273438 531.058594 C 293.007812 528.765625 292.742188 526.476562 292.472656 524.183594 C 307.800781 521.878906 322.964844 518.703125 338.15625 515.664062 C 353.75 512.542969 369.425781 509.824219 385.058594 506.898438 C 393.34375 505.351562 401.671875 504.011719 410.09375 503.546875 C 411.140625 506.789062 412.054688 510.078125 413.109375 513.320312 C 414.191406 516.636719 415.253906 520.386719 417.730469 522.96875 C 421.972656 527.386719 428.070312 525.996094 433.492188 526.839844 C 439.710938 527.804688 445.390625 532.171875 447.777344 538.019531 C 449.203125 541.511719 449.582031 545.320312 451.242188 548.742188 C 452.6875 551.71875 455.023438 554.148438 457.710938 556.03125 C 463.695312 560.222656 471.234375 560.941406 478.265625 559.730469 C 482.308594 559.035156 486.179688 557.65625 489.945312 556.058594 C 493.496094 554.554688 497.117188 552.46875 501.0625 552.359375 C 507.175781 552.1875 512.375 556.820312 516.960938 560.269531 C 522.339844 564.320312 527.988281 567.859375 534.921875 568.117188 C 548.738281 568.632812 556.046875 557.445312 563.046875 547.445312 C 565.941406 543.3125 569.21875 538.917969 573.941406 536.769531 C 577.128906 535.320312 580.667969 535.457031 584.0625 534.921875 C 587.425781 534.390625 590.429688 532.964844 592.988281 530.722656 C 598.03125 526.316406 600.355469 519.503906 600.765625 512.984375 C 601.035156 508.691406 600.5 504.410156 599.898438 500.167969 C 599.328125 496.136719 598.015625 491.554688 598.796875 487.484375 C 600.007812 481.136719 607.503906 477.890625 611.40625 473.359375 C 615.648438 468.429688 618.03125 462.207031 618.519531 455.742188 C 618.996094 449.382812 617.445312 442.703125 613.867188 437.386719 Z M 282.425781 519.707031 C 282.414062 519.695312 282.371094 519.664062 282.21875 519.578125 C 281.972656 519.4375 281.71875 519.308594 281.476562 519.15625 C 279.960938 518.203125 278.746094 516.546875 278.285156 514.808594 C 278.066406 513.96875 278.222656 513.308594 278.707031 512.460938 C 278.839844 512.222656 278.988281 511.992188 279.140625 511.765625 C 279.175781 511.714844 279.34375 511.488281 279.417969 511.390625 C 279.734375 511.011719 280.066406 510.644531 280.425781 510.308594 C 281.199219 509.578125 281.597656 509.292969 282.722656 508.691406 C 282.964844 508.5625 283.210938 508.441406 283.460938 508.324219 C 283.558594 508.28125 283.605469 508.253906 283.636719 508.238281 C 283.664062 508.234375 283.710938 508.21875 283.816406 508.1875 C 284.207031 508.0625 284.597656 507.945312 284.988281 507.835938 C 285.46875 511.960938 285.949219 516.085938 286.429688 520.207031 C 285.714844 520.335938 285.015625 520.359375 284.285156 520.234375 C 284.023438 520.1875 283.121094 519.945312 282.636719 519.769531 C 282.480469 519.714844 282.4375 519.707031 282.425781 519.707031 Z M 398.570312 856.195312 C 398.78125 857.386719 399.054688 858.589844 399.230469 859.792969 C 361.152344 875.726562 319.621094 884.386719 278.332031 879.40625 C 272.492188 878.703125 266.683594 877.703125 260.933594 876.453125 C 257.894531 875.792969 254.871094 875.058594 251.863281 874.253906 C 250.25 873.820312 248.621094 873.222656 246.972656 872.855469 C 240.667969 837.5625 234.507812 802.242188 228.640625 766.875 C 222.824219 731.816406 217.300781 696.710938 212.125 661.554688 C 209.117188 641.117188 206.226562 620.664062 203.445312 600.195312 C 204.683594 600.210938 205.929688 600.132812 207.140625 599.988281 C 236.117188 596.386719 265.027344 592.230469 293.839844 587.492188 C 300.828125 586.34375 307.8125 585.160156 314.792969 583.945312 C 320.554688 582.9375 327.078125 581.515625 332.488281 580.824219 C 339.601562 579.914062 347.105469 579.609375 353.6875 576.464844 C 353.871094 576.378906 354.050781 576.277344 354.234375 576.183594 C 355.632812 586.308594 357.054688 596.429688 358.503906 606.546875 C 351.101562 601.867188 343.160156 597.4375 334.265625 596.957031 C 326.425781 596.53125 317.949219 599.621094 313.390625 606.246094 C 308.828125 612.875 310.121094 621.148438 312.269531 628.382812 C 314.296875 635.199219 318.105469 643.15625 315.6875 650.335938 C 312.558594 659.640625 300.921875 661.136719 292.601562 661.386719 C 283.726562 661.652344 275.214844 661.832031 266.949219 665.457031 C 260.078125 668.472656 254.027344 673.957031 252.246094 681.484375 C 249.988281 691.035156 254.785156 700.3125 260.683594 707.515625 C 266.414062 714.511719 273.21875 720.597656 279.066406 727.503906 C 284.765625 734.226562 290.058594 741.699219 292.761719 750.171875 C 294.230469 754.765625 295.203125 759.761719 293.769531 764.480469 C 292.417969 768.941406 289.398438 772.753906 286.546875 776.351562 C 282.414062 781.570312 279.164062 787.121094 278.128906 793.800781 C 277.210938 799.714844 277.898438 806.046875 281.550781 810.96875 C 285.515625 816.316406 292.429688 819.132812 299.007812 819.054688 C 312.464844 818.894531 318.304688 805.058594 325.222656 795.820312 C 328.707031 791.164062 334.019531 786.113281 340.375 788.398438 C 344.894531 790.027344 344.457031 794.785156 344.304688 798.777344 C 344.152344 802.734375 344.445312 806.699219 345.199219 810.585938 C 346.628906 817.9375 350.0625 825.21875 356.292969 829.652344 C 363.96875 835.121094 373.632812 834.011719 381.769531 830.269531 C 385.746094 828.441406 389.363281 825.96875 392.804688 823.28125 C 393.296875 826.117188 393.773438 828.957031 394.269531 831.789062 C 395.226562 837.277344 396.1875 842.761719 397.160156 848.246094 C 397.628906 850.894531 398.097656 853.542969 398.570312 856.195312 Z M 388.675781 799.265625 C 389.734375 805.515625 390.820312 811.761719 391.898438 818.011719 C 391.1875 817.925781 390.425781 818.097656 389.738281 818.644531 C 383.042969 823.976562 373.816406 829.65625 364.867188 827.492188 C 357.613281 825.738281 353.347656 819.324219 351.394531 812.507812 C 350.347656 808.851562 349.875 805.078125 349.84375 801.277344 C 349.808594 796.894531 350.648438 792.304688 348.453125 788.265625 C 344.875 781.675781 335.703125 781.007812 329.636719 784.199219 C 319.234375 789.667969 316.164062 802.699219 307.554688 810.066406 C 303.023438 813.941406 297.128906 814.285156 291.707031 812.019531 C 286.800781 809.96875 283.832031 805.515625 283.382812 800.273438 C 282.910156 794.71875 284.625 789.078125 287.519531 784.375 C 291.910156 777.246094 298.5 771.726562 299.808594 762.992188 C 301.09375 754.394531 297.527344 745.230469 293.332031 737.878906 C 289.066406 730.398438 283.414062 723.753906 277.589844 717.449219 C 268.277344 707.378906 247.59375 689.660156 261.953125 675.347656 C 274.945312 662.394531 294.96875 670.695312 310.140625 663.574219 C 317.320312 660.203125 322.050781 653.535156 321.996094 645.511719 C 321.945312 637.976562 318.585938 630.984375 316.796875 623.789062 C 315.046875 616.738281 315.621094 609.367188 322.421875 605.285156 C 329.894531 600.800781 338.835938 602.417969 346.300781 606.007812 C 350.492188 608.023438 354.417969 610.539062 358.320312 613.050781 C 358.722656 613.308594 359.117188 613.441406 359.496094 613.484375 C 362.683594 635.601562 365.96875 657.703125 369.359375 679.785156 C 375.484375 719.660156 381.921875 759.488281 388.675781 799.265625 Z M 349.3125 561.371094 C 350.339844 561.457031 351.398438 561.820312 352.324219 562.390625 C 352.679688 564.980469 353.046875 567.570312 353.402344 570.164062 C 352.265625 571.09375 350.75 571.746094 349.496094 572.195312 C 343.476562 574.351562 337.046875 574.550781 330.78125 575.464844 C 318.847656 577.210938 306.992188 579.683594 295.089844 581.65625 C 265.863281 586.503906 236.539062 590.75 207.140625 594.40625 C 203.195312 594.878906 196.605469 595.179688 197.488281 589.308594 C 198.109375 585.171875 203.300781 584.59375 206.660156 584.03125 C 211.035156 583.300781 215.472656 583.050781 219.828125 582.195312 C 226.238281 580.9375 232.652344 579.6875 239.074219 578.488281 C 264.886719 573.664062 290.808594 569.421875 316.808594 565.765625 C 323.121094 564.878906 329.507812 564.257812 335.785156 563.164062 C 340.214844 562.390625 344.769531 560.988281 349.3125 561.371094 Z M 333.195312 557.804688 C 329.84375 558.339844 326.488281 558.847656 323.105469 559.304688 C 294.183594 563.238281 265.359375 567.898438 236.671875 573.273438 C 229.453125 574.628906 222.230469 576.425781 214.949219 577.390625 C 212.472656 577.71875 209.917969 577.9375 207.382812 578.273438 C 215.027344 561.738281 229.449219 548.675781 246.160156 541.636719 C 265.046875 533.683594 286.34375 534.128906 305.425781 541.207031 C 315.597656 544.984375 325.023438 550.675781 333.195312 557.804688 Z M 278.230469 530.183594 C 267.902344 529.859375 257.660156 531.554688 248.046875 535.007812 C 245.832031 525.085938 243.683594 515.144531 241.601562 505.191406 C 250.691406 497.792969 262.730469 494.40625 274.371094 495.722656 C 275.914062 495.898438 277.449219 496.179688 278.960938 496.539062 C 280.148438 496.816406 281.996094 497.039062 283.035156 497.71875 C 284.234375 498.5 284.058594 499.859375 284.21875 501.226562 C 284.257812 501.570312 284.296875 501.910156 284.339844 502.253906 C 284.292969 502.261719 284.246094 502.261719 284.199219 502.273438 C 278.179688 503.585938 271.09375 509.433594 272.902344 516.292969 C 274.539062 522.496094 280.839844 526.574219 287.070312 525.738281 C 287.277344 527.492188 287.480469 529.25 287.683594 531.007812 C 284.554688 530.570312 281.402344 530.28125 278.230469 530.183594 Z M 608.0625 468.667969 C 604.273438 473.597656 598.234375 476.351562 595.050781 481.820312 C 591.011719 488.765625 594.144531 497.519531 594.921875 504.933594 C 595.644531 511.796875 595.445312 519.347656 590.835938 524.941406 C 588.777344 527.4375 586.140625 528.953125 582.945312 529.472656 C 579.617188 530.015625 576.234375 529.9375 573.035156 531.136719 C 562.597656 535.046875 558.160156 546.015625 551.476562 554.023438 C 547.589844 558.679688 542.738281 562.300781 536.4375 562.535156 C 529.691406 562.785156 524.382812 558.925781 519.246094 555.046875 C 514.511719 551.472656 509.59375 547.707031 503.53125 546.933594 C 495.871094 545.953125 489.195312 550.851562 482.164062 553.03125 C 475.316406 555.152344 467.691406 555.734375 461.378906 551.773438 C 458.59375 550.027344 456.539062 547.515625 455.472656 544.402344 C 454.316406 541.035156 453.789062 537.53125 452.199219 534.308594 C 449.40625 528.644531 444.144531 524.316406 438.214844 522.28125 C 435.382812 521.308594 432.445312 521.109375 429.480469 521.007812 C 427.222656 520.929688 424.492188 521.066406 422.53125 519.742188 C 420.003906 518.03125 419.234375 514.140625 418.359375 511.425781 C 417.128906 507.59375 416.089844 503.707031 414.765625 499.90625 C 414.371094 498.773438 413.347656 497.808594 412.074219 497.855469 C 396.007812 498.476562 380.339844 502.328125 364.574219 505.132812 C 348.691406 507.953125 332.890625 511.109375 317.0625 514.214844 C 308.679688 515.859375 300.277344 517.382812 291.832031 518.667969 C 291.394531 514.917969 290.960938 511.167969 290.523438 507.417969 C 290.859375 507.367188 291.207031 507.246094 291.558594 507.03125 C 319.769531 489.691406 348.445312 473.125 376.773438 455.980469 C 380.402344 453.785156 384.066406 451.628906 387.652344 449.355469 C 390.324219 447.660156 392.890625 445.53125 393.535156 442.269531 C 394.230469 438.746094 392.34375 435.453125 392.484375 431.953125 C 392.597656 429.167969 393.757812 426.421875 395.460938 424.242188 C 397.257812 421.945312 399.742188 420.167969 402.574219 419.429688 C 405.742188 418.601562 409.066406 419.320312 412.054688 417.667969 C 416.507812 415.210938 417.375 409.890625 417.210938 405.25 C 417.035156 400.332031 415.511719 395.222656 416.109375 390.304688 C 416.722656 385.273438 421.195312 381.792969 425.289062 379.488281 C 429.953125 376.859375 434.972656 374.898438 439.132812 371.449219 C 444.488281 367.007812 446.285156 360.589844 448.214844 354.1875 C 452.050781 341.445312 462.820312 329.347656 477.414062 331.757812 C 480.972656 332.34375 484.019531 333.90625 486.882812 336.050781 C 489.730469 338.179688 492.414062 340.3125 495.828125 341.472656 C 502.542969 343.753906 509.796875 341.886719 516.363281 340.023438 C 522.882812 338.171875 529.464844 336.0625 536.308594 337.261719 C 542.34375 338.320312 548 341.226562 552.421875 345.460938 C 557.203125 350.042969 559.609375 355.441406 561.109375 361.78125 C 561.898438 365.109375 563.082031 368.378906 565.648438 370.761719 C 567.90625 372.855469 570.734375 374.132812 573.625 375.105469 C 579.796875 377.183594 585.726562 378.511719 590.878906 382.785156 C 595.789062 386.859375 599.792969 392.488281 601.363281 398.730469 C 602.902344 404.863281 599.667969 410.761719 598.785156 416.730469 C 597.730469 423.824219 600.300781 429.40625 604.730469 434.796875 C 608.894531 439.863281 612.4375 444.667969 612.9375 451.449219 C 613.386719 457.527344 611.804688 463.796875 608.0625 468.667969 Z M 585.199219 466.492188 C 581.859375 469.9375 579.613281 474.398438 579.074219 479.195312 C 578.546875 483.90625 580.148438 488.546875 579.433594 493.242188 C 578.183594 501.472656 570.90625 505.148438 565.367188 510.289062 C 560.605469 514.710938 558.507812 520.914062 555.9375 526.707031 C 553.5 532.199219 550.1875 537.425781 544.648438 540.207031 C 537.566406 543.765625 529.027344 543.53125 522.824219 538.351562 C 520.0625 536.042969 524.03125 532.113281 526.773438 534.402344 C 532.699219 539.351562 542.089844 537.03125 546.765625 531.496094 C 550.25 527.367188 551.84375 521.878906 554.082031 517.050781 C 555.335938 514.34375 556.78125 511.765625 558.621094 509.410156 C 560.746094 506.683594 563.414062 504.605469 566.117188 502.488281 C 568.730469 500.441406 571.589844 498.265625 573.070312 495.203125 C 574.828125 491.5625 573.765625 487.585938 573.460938 483.761719 C 572.839844 475.902344 575.789062 468.175781 581.253906 462.542969 C 583.761719 459.960938 587.703125 463.914062 585.199219 466.492188 Z M 283.019531 832.324219 C 283.515625 831.855469 283.828125 831.210938 283.828125 830.40625 C 283.828125 829.035156 282.542969 827.433594 281.039062 827.613281 C 275.054688 828.332031 270.347656 832.039062 266.527344 836.507812 C 262.554688 841.15625 259.289062 846.988281 260.472656 853.304688 C 261.410156 858.300781 265.78125 862.324219 270.648438 863.46875 C 276.050781 864.742188 281.226562 862.429688 284.527344 858.09375 C 288.988281 852.222656 288.773438 844.628906 287.375 837.742188 C 286.980469 835.789062 284.78125 833.4375 283.019531 832.324219 Z M 281.222656 852.914062 C 279.613281 856.015625 276.636719 858.664062 272.933594 858.230469 C 269.980469 857.886719 266.996094 855.792969 266.113281 852.878906 C 264.855469 848.726562 267.304688 844.394531 269.820312 841.242188 C 272.527344 837.851562 276.3125 833.871094 280.851562 833.230469 C 281.765625 837.878906 283.339844 848.835938 281.222656 852.914062 Z M 341.890625 613.617188 C 341.527344 610.457031 338.757812 609.011719 335.859375 608.714844 C 332.679688 608.394531 329.636719 609.265625 327.605469 611.824219 C 325.4375 614.558594 324.5 618.015625 324.054688 621.417969 C 323.039062 629.242188 325.480469 636.402344 327.015625 643.964844 C 327.648438 647.058594 328.300781 650.683594 331.347656 652.316406 C 335.226562 654.394531 338.625 651.65625 339.292969 647.765625 C 340.109375 643.007812 339.019531 638.289062 338.183594 633.617188 C 337.445312 629.5 336.992188 625.007812 339.261719 621.285156 C 340.695312 619.035156 342.210938 616.378906 341.890625 613.617188 Z M 336.421875 614.449219 C 336.980469 614.472656 336.601562 614.605469 336.421875 614.449219 Z M 336.375 614.390625 C 336.359375 614.363281 336.355469 614.328125 336.351562 614.292969 C 336.359375 614.316406 336.371094 614.347656 336.375 614.390625 Z M 333.535156 646.832031 C 333.277344 646.417969 333.175781 645.855469 333.046875 645.390625 C 332.359375 642.894531 331.878906 640.316406 331.25 637.800781 C 330.53125 634.90625 329.773438 631.933594 329.496094 628.957031 C 329.257812 626.425781 329.25 623.8125 329.675781 621.296875 C 330.03125 619.234375 330.609375 616.636719 332.132812 615.082031 C 332.792969 614.40625 333.542969 614.246094 334.472656 614.226562 C 335.03125 614.214844 335.550781 614.285156 336.09375 614.375 C 336.152344 614.386719 336.292969 614.441406 336.382812 614.445312 C 336.378906 614.488281 336.375 614.546875 336.359375 614.628906 C 336.339844 614.730469 336.128906 615.382812 336.015625 615.660156 C 335.617188 616.648438 335.011719 617.570312 334.4375 618.464844 C 331.351562 623.535156 331.792969 629.492188 332.800781 635.101562 C 333.363281 638.238281 334.085938 641.367188 334.015625 644.574219 C 334 645.320312 333.679688 646.273438 333.78125 646.980469 C 333.785156 646.988281 333.78125 647.027344 333.777344 647.085938 C 333.664062 646.976562 333.5625 646.871094 333.535156 646.832031 Z M 312.015625 760.132812 C 312.082031 763.730469 306.5 763.71875 306.433594 760.132812 C 306.09375 742.074219 298.027344 724.78125 284.542969 712.800781 C 281.847656 710.40625 285.8125 706.472656 288.488281 708.851562 C 303.050781 721.785156 311.652344 740.675781 312.015625 760.132812 Z M 537.398438 373.613281 C 540.957031 376.726562 543.144531 380.726562 545.648438 384.667969 C 547.777344 388.007812 550.632812 392.703125 555.097656 392.875 C 559.164062 393.03125 561.371094 389.289062 561.675781 385.675781 C 562.070312 381.003906 560.289062 375.707031 558.730469 371.363281 C 555.574219 362.574219 550.339844 352.960938 542.515625 347.503906 C 536.097656 343.03125 525.65625 343.25 521.871094 351.101562 C 516.648438 361.933594 530.882812 368.175781 537.398438 373.613281 Z M 530.058594 350.65625 C 532.792969 349.464844 535.90625 350.078125 538.414062 351.515625 C 544.675781 355.105469 548.945312 362.714844 551.828125 369.085938 C 553.464844 372.699219 554.671875 376.519531 555.503906 380.394531 C 555.867188 382.082031 556.359375 383.941406 556.09375 385.675781 C 556.027344 386.089844 555.691406 387.222656 555.464844 387.300781 C 554.480469 387.640625 552.863281 385.304688 552.425781 384.722656 C 551.230469 383.128906 550.195312 381.421875 549.15625 379.726562 C 546.921875 376.078125 544.59375 372.503906 541.347656 369.664062 C 538.242188 367.070312 534.816406 364.933594 531.597656 362.496094 C 529.394531 360.828125 526.234375 358.539062 526.394531 355.40625 C 526.503906 353.230469 528.128906 351.496094 530.058594 350.65625 Z M 556.058594 398.421875 C 554.882812 399.554688 554.078125 401.058594 553.597656 402.601562 C 552.691406 405.519531 552.945312 409.132812 554.640625 411.730469 C 555.722656 413.382812 557.328125 414.695312 559.277344 415.164062 C 561.3125 415.65625 563.320312 415.3125 565.207031 414.488281 C 568.6875 412.96875 571.097656 409.246094 570.777344 405.421875 C 570.578125 403.027344 569.664062 400.808594 568.023438 399.039062 C 566.28125 397.152344 563.558594 395.96875 560.980469 396.207031 C 559.09375 396.449219 557.449219 397.085938 556.058594 398.421875 Z M 561.816406 401.757812 C 561.761719 401.753906 561.71875 401.746094 561.71875 401.738281 C 561.71875 401.738281 561.757812 401.746094 561.816406 401.757812 Z M 558.71875 405.132812 C 558.707031 405.289062 558.6875 405.5 558.671875 405.46875 C 558.648438 405.394531 558.6875 405.25 558.71875 405.132812 Z M 559.53125 409.011719 C 559.511719 408.984375 559.496094 408.957031 559.480469 408.933594 C 559.617188 409.097656 559.730469 409.316406 559.53125 409.011719 Z M 559.378906 408.828125 C 559.398438 408.84375 559.421875 408.867188 559.445312 408.894531 C 559.421875 408.875 559.398438 408.84375 559.378906 408.828125 Z M 564.128906 403.042969 C 564.152344 403.070312 564.203125 403.132812 564.253906 403.191406 C 564.300781 403.253906 564.347656 403.320312 564.367188 403.351562 C 564.46875 403.507812 564.566406 403.664062 564.65625 403.824219 C 564.726562 403.953125 564.785156 404.082031 564.851562 404.210938 C 564.957031 404.519531 565.0625 404.828125 565.136719 405.148438 C 565.15625 405.230469 565.167969 405.316406 565.183594 405.402344 C 565.191406 405.464844 565.203125 405.527344 565.207031 405.578125 C 565.226562 405.898438 565.1875 406.21875 565.195312 406.539062 C 565.164062 406.671875 565.140625 406.804688 565.105469 406.9375 C 565.0625 407.089844 565.011719 407.238281 564.964844 407.386719 C 564.835938 407.625 564.710938 407.867188 564.554688 408.09375 C 564.464844 408.1875 564.382812 408.304688 564.296875 408.394531 C 564.105469 408.59375 563.871094 408.765625 563.675781 408.960938 C 563.535156 409.058594 563.390625 409.148438 563.246094 409.234375 C 563.117188 409.308594 562.988281 409.382812 562.855469 409.449219 C 562.824219 409.464844 562.757812 409.496094 562.695312 409.523438 C 562.644531 409.542969 562.601562 409.558594 562.578125 409.566406 C 562.417969 409.621094 562.253906 409.671875 562.089844 409.714844 C 561.976562 409.746094 561.859375 409.769531 561.742188 409.796875 C 561.476562 409.78125 561.1875 409.820312 560.925781 409.8125 C 560.828125 409.792969 560.726562 409.773438 560.625 409.746094 C 560.527344 409.71875 560.429688 409.683594 560.332031 409.652344 C 560.320312 409.644531 560.320312 409.644531 560.308594 409.636719 C 560.199219 409.570312 560.085938 409.507812 559.976562 409.441406 C 559.824219 409.265625 559.644531 409.066406 559.46875 408.914062 C 559.421875 408.84375 559.378906 408.777344 559.335938 408.707031 C 559.226562 408.527344 559.140625 408.335938 559.046875 408.148438 C 559.007812 408.03125 558.96875 407.917969 558.933594 407.800781 C 558.855469 407.539062 558.789062 407.273438 558.738281 407.003906 C 558.734375 406.972656 558.726562 406.921875 558.714844 406.867188 C 558.714844 406.863281 558.714844 406.859375 558.714844 406.855469 C 558.691406 406.578125 558.679688 406.296875 558.679688 406.019531 C 558.679688 405.757812 558.691406 405.5 558.714844 405.238281 C 558.71875 405.195312 558.722656 405.148438 558.726562 405.101562 C 558.734375 405.074219 558.746094 405.039062 558.75 405.019531 C 558.808594 404.707031 558.886719 404.394531 558.980469 404.085938 C 559.019531 403.960938 559.066406 403.835938 559.109375 403.714844 C 559.222656 403.484375 559.332031 403.257812 559.464844 403.039062 C 559.523438 402.941406 559.585938 402.847656 559.652344 402.753906 C 559.816406 402.574219 559.984375 402.398438 560.164062 402.226562 C 560.257812 402.167969 560.347656 402.105469 560.441406 402.050781 C 560.519531 402.003906 560.601562 401.964844 560.683594 401.925781 C 560.84375 401.878906 561.175781 401.8125 561.332031 401.773438 C 561.425781 401.769531 561.519531 401.757812 561.617188 401.761719 C 561.703125 401.761719 561.789062 401.769531 561.875 401.773438 C 562.050781 401.808594 562.308594 401.867188 562.34375 401.875 C 562.445312 401.90625 562.546875 401.9375 562.648438 401.972656 C 562.664062 401.976562 562.703125 401.992188 562.742188 402.003906 C 562.828125 402.046875 562.9375 402.097656 562.976562 402.121094 C 563.140625 402.207031 563.296875 402.300781 563.449219 402.402344 C 563.457031 402.40625 563.460938 402.410156 563.46875 402.414062 C 563.566406 402.519531 563.710938 402.617188 563.800781 402.707031 C 563.914062 402.816406 564.023438 402.929688 564.128906 403.042969 Z M 564.128906 403.042969 " fill-opacity="1" fill-rule="nonzero"/></g></svg>